<?xml version="1.0" standalone="no"?>
<!DOCTYPE svg PUBLIC "-//W3C//DTD SVG 20010904//EN"
 "http://www.w3.org/TR/2001/REC-SVG-20010904/DTD/svg10.dtd">
<svg version="1.0" xmlns="http://www.w3.org/2000/svg"
 width="96.000000pt" height="96.000000pt" viewBox="0 0 96.000000 96.000000"
 preserveAspectRatio="xMidYMid meet">

<g transform="translate(0.000000,96.000000) scale(0.100000,-0.100000)"
fill="#000000" stroke="none">
<path d="M400 870 c-205 -43 -347 -249 -311 -452 47 -267 326 -411 569 -292
259 127 293 499 62 669 -92 67 -216 96 -320 75z m45 -190 c12 -10 15 -44 15
-177 0 -152 -1 -164 -17 -159 -10 3 -55 8 -100 12 l-83 7 0 170 0 170 85 -5
c47 -3 92 -11 100 -18z m255 -149 l0 -168 -82 -7 c-46 -4 -91 -9 -100 -12 -17
-5 -18 7 -18 159 0 120 3 167 13 175 16 13 49 19 125 21 l62 1 0 -169z m-480
-51 l0 -180 113 0 c73 0 117 -4 125 -12 9 -9 18 -9 37 0 15 7 73 12 135 12
l110 0 0 180 c0 99 4 180 8 180 4 0 13 -5 20 -12 17 -17 17 -359 0 -376 -8 -8
-50 -12 -124 -12 -65 0 -115 -4 -119 -10 -3 -5 -24 -10 -45 -10 -21 0 -42 5
-45 10 -4 6 -54 10 -119 10 -74 0 -116 4 -124 12 -17 17 -17 359 0 376 7 7 16
12 20 12 4 0 8 -81 8 -180z"/>
</g>
</svg>
